<svg width="196px" height="80px" viewBox="0 0 196 80" version="1.1" xmlns="http://www.w3.org/2000/svg" xmlns:xlink="http://www.w3.org/1999/xlink">
    <title>Logo-Kaspi-Pay-web</title>
    <g id="Logo-Kaspi-Pay-web" stroke="none" stroke-width="1" fill="none" fill-rule="evenodd">
        <g id="Icons-/-POS-/-Logo-/-Loading">
            <rect id="Rectangle" x="0" y="0" width="196" height="80"></rect>
            <path d="M41.5280727,43.0591504 C48.8171314,44.1840263 49.6580065,48.5702946 50.2312949,52.5684777 L50.2879607,52.9668673 L50.3534168,53.4224425 L50.7009333,55.7309381 C51.3790262,60.1402478 52.7953524,69.291469 52.7953524,74.0662301 C52.7953524,75.260354 52.690417,76.1762832 52.4986203,76.6795752 C52.1787464,77.4551504 51.2470153,78.1993274 49.9610344,78.8202478 C46.8486253,79.5862655 43.5959834,80.0000354 40.2452105,80.0000354 C39.8906416,80.0000354 39.5417076,79.9829027 39.1910725,79.9730973 C37.8371193,79.588531 36.8185268,78.9465487 36.2800642,78.0682124 C34.6279786,75.3792716 34.5521323,69.3363065 34.5205896,62.3040234 L34.5184897,61.8230442 L34.5052354,59.7562478 C34.4524665,52.4568142 34.4073525,46.1620531 37.0594423,43.9037876 C38.0864692,43.0350088 39.5464919,42.7475398 41.5280727,43.0591504 Z M25.5589375,57.9978407 C27.1323301,57.908885 28.1438701,65.6526372 28.3466884,71.5249558 C28.4888349,75.6131327 28.0600919,77.2945487 27.3757617,77.8989027 C26.6003528,77.639823 25.8384462,77.3596814 25.0875612,77.0542655 C24.5868767,76.1436814 24.2032477,74.7112212 23.9609502,72.8344425 C23.2179681,66.9368496 23.8630672,58.1014159 25.5589375,57.9978407 Z M113.301345,34 L113.851155,34.0058462 C116.762554,34.068206 119.339224,34.6294441 121.581166,35.6895604 C123.963229,36.8159341 125.795217,38.4163233 127.07713,40.490728 C128.359043,42.5651328 129,44.9258242 129,47.5728022 C129,51.5902015 127.598505,54.7581273 124.795516,57.0765797 C121.992526,59.3950321 118.113303,60.5542582 113.157848,60.5542582 L113.157848,60.5542582 L105.609865,60.5542582 L105.609865,75 L97,75 L97,34 L113.301345,34 Z M149.428571,34 L165,75 L155.885714,75 L153,66.5521978 L137.971429,66.5521978 L135.114286,75 L126,75 L141.485714,34 L149.428571,34 Z M169.392546,34 L177.985726,52.4725275 L186.636003,34 L196,34 L182.353688,60.1318681 L182.353688,75 L173.646312,75 L173.646312,60.1318681 L160,34 L169.392546,34 Z M65.3761137,70.251646 C65.2742616,70.7911504 65.1295635,71.2085664 64.952155,71.5602832 C63.5516347,72.6449204 62.0805905,73.6402832 60.5401918,74.5362832 C60.0499264,74.6171327 59.614131,74.5604248 59.4008581,74.2134867 C57.3600584,70.7515752 56.5933676,59.892531 58.5687465,58.9474336 C61.1443941,57.7463009 65.7580416,68.3743009 65.3761137,70.251646 Z M40.2452459,7.079646e-05 C62.1919637,7.079646e-05 80.0340348,17.4628855 80.4776052,39.1743819 L80.4857075,39.8335929 L80.4857075,40.180531 C80.4462283,49.9683894 76.855674,58.9239646 70.9410902,65.8553982 C70.7264352,65.7470442 70.3349033,65.3939115 69.6257656,64.3294867 C68.8923876,63.2594336 62.5651147,53.4898407 62.5651147,42.2911504 C62.5651147,40.0940885 65.7223898,36.6613805 68.515811,33.648 C70.6040283,31.3802124 72.582774,29.2412389 73.3105527,27.5606726 C74.2382791,25.3916814 73.5892463,23.876708 72.5627509,23.3638584 C71.6336069,22.9071504 70.2387214,23.2400708 69.2593601,24.9849204 C67.6529383,27.8090973 67.1372984,28.3368142 64.7946634,30.2262301 C62.4878219,32.1147965 58.8211088,34.015469 58.8211088,31.5542301 C58.8211088,30.2262301 60.863645,27.2168142 61.8717829,25.1073274 C62.902212,22.9747965 61.792222,21.4306549 59.6645255,21.4306549 C55.4869923,21.4306549 52.7141613,26.7707611 52.7141613,28.6203186 C52.7141613,30.4679292 53.6080787,30.7317876 53.6080787,32.8839292 C53.6080787,35.0529204 49.0240583,37.8658761 44.7068594,37.8658761 C40.4789289,37.8658761 38.0571985,36.992387 37.0909552,34.5196872 L37.0137966,34.3099115 L36.724932,33.4526372 C35.6998896,30.4485664 34.9656256,28.2700177 33.6866971,25.9943363 C33.0077536,24.7909735 31.9598175,23.9558584 31.0538153,23.2221239 C29.8693675,22.2985841 29.2544272,21.4486372 29.1263855,20.8142301 C29.0087275,20.1857345 28.9447243,19.000885 30.9691866,16.268531 C32.9902466,13.5524248 33.2729094,11.4999292 32.2616529,10.4416637 C31.8952473,10.0649558 31.270703,9.82329204 30.4685021,9.82329204 C29.0490927,9.82329204 27.0776474,10.5783717 25.0452823,12.6496991 C21.8865896,15.8982655 23.6794569,18.9815221 23.6794569,20.3353628 C23.6794569,21.6880708 23.1006645,22.4532743 21.2050945,24.2935575 C19.2951716,26.1419823 18.6367829,27.7268319 18.4181941,34.0971327 C18.3344159,37.3788319 17.7586713,39.2677168 17.2407988,40.9435044 C16.7948323,42.411292 16.3835608,43.792354 16.3612696,45.7867611 C16.3257241,47.9964602 16.6930156,49.4204602 17.1200575,51.0648496 C17.5400825,52.5831504 17.9868995,54.3240708 18.2720784,57.2355398 C18.7419342,61.8855862 18.5580701,65.7909373 17.6617995,69.8118836 L17.5220085,70.416 L17.4706926,70.6964248 C17.3008681,71.3799292 17.0994674,72.2105133 16.8278262,72.5221239 C6.64232702,65.2636814 5.30775424e-12,53.4081416 5.30775424e-12,40.007646 C5.30775424e-12,17.9137345 18.0179087,7.079646e-05 40.2452459,7.079646e-05 Z M144.972527,45 L140,60 L150,60 L144.972527,45 Z M113.519531,41 L106,41 L106,54 L113.328125,54 C115.497396,54 117.151693,53.4690007 118.291016,52.4070022 C119.430339,51.3450036 120,49.8278629 120,47.8555799 C120,45.8264041 119.425781,44.1859956 118.277344,42.9343545 C117.128906,41.6827133 115.542969,41.0379285 113.519531,41 L113.519531,41 Z M137.382044,4.87568142 C139.932247,4.87568142 141.780045,5.49745133 143.367719,7.02474336 L141.07764,9.27713274 C139.932247,8.16159292 138.501922,8.00916814 137.279271,8.00916814 C135.353507,8.00916814 134.441657,9.068 134.441657,10.3350796 C134.441657,10.8266195 134.569592,11.2942655 134.961904,11.6560708 C135.327991,11.9898407 135.873045,12.2528496 136.652352,12.3539115 L138.867654,12.6916106 C140.55633,12.9223363 141.599305,13.364177 142.404837,14.1414159 C143.395007,15.0464071 143.836225,16.3637522 143.836225,18.0207434 C143.836225,21.5915752 140.869967,23.6106903 136.965634,23.6106903 C134.154954,23.6106903 132.023643,23.0156106 130.201361,21.1764248 L132.542827,18.848 C133.713028,20.0132035 135.299994,20.4030796 136.991859,20.4030796 C139.151876,20.4030796 140.297624,19.5733451 140.297624,18.0990796 C140.297624,17.4781593 140.113341,16.9588673 139.727763,16.5726018 C139.362739,16.2343717 138.996653,16.0819469 138.059996,15.9516814 L135.848592,15.6134513 C134.208113,15.3818761 133.089299,14.8881062 132.255415,14.0894867 C131.368018,13.2339115 130.92751,12.0187611 130.92751,10.4653451 C130.92751,7.17943363 133.375647,4.87568142 137.382044,4.87568142 Z M167.211543,5.03132743 L167.211543,23.4556106 L163.594622,23.4556106 L163.594622,5.03132743 L167.211543,5.03132743 Z M101.30487,5.0299115 L101.30487,13.0532389 L107.838044,5.0299115 L112.23654,5.0299115 L106.095394,12.3545841 L112.679175,23.4541593 L108.462588,23.4541593 L103.699423,15.0715044 L101.30487,17.9175575 L101.30487,23.4541593 L97.6895078,23.4541593 L97.6895078,5.0299115 L101.30487,5.0299115 Z M154.431117,5.0320708 C158.281937,5.0320708 160.548626,7.64626549 160.548626,10.7749735 C160.548626,13.9079292 158.281937,16.5195752 154.431117,16.5195752 L150.863457,16.5195752 L150.863457,23.4538053 L147.249371,23.4538053 L147.249371,5.0320708 L154.431117,5.0320708 Z M122.805916,5.03115044 L129.571253,23.4537345 L125.799108,23.4537345 L124.704747,20.1950442 L118.121213,20.1950442 L117.001336,23.4537345 L113.230609,23.4537345 L119.970075,5.03115044 L122.805916,5.03115044 Z M121.478011,10.4653097 L119.137254,17.1665487 L123.740802,17.1665487 L121.478011,10.4653097 Z M154.248251,8.24049558 L150.863457,8.24049558 L150.863457,13.2864425 L154.248251,13.2864425 C155.88873,13.2864425 156.927098,12.2775929 156.927098,10.7749735 C156.927098,9.27631858 155.88873,8.24049558 154.248251,8.24049558 Z" id="KaspiPay" fill="#4A4A4A"></path>
        </g>
    </g>
</svg>